<?xml version="1.0" encoding="utf-8"?>
<!-- Generator: Adobe Illustrator 22.0.1, SVG Export Plug-In . SVG Version: 6.00 Build 0)  -->
<svg version="1.1" id="Layer_1" xmlns="http://www.w3.org/2000/svg" xmlns:xlink="http://www.w3.org/1999/xlink" x="0px" y="0px"
	 viewBox="0 0 1000 1000" style="enable-background:new 0 0 1000 1000;" xml:space="preserve">
<style type="text/css">
	.st0{fill:#FFFFFF;}
</style>
<g>
	<g>
		<path class="st0" d="M10,500c0-41.5,8.1-81.1,24.4-118.9s38-70.3,65.3-97.6s59.8-49,97.6-65.3s77.4-24.4,118.9-24.4h367.5
			c41.5,0,81.1,8.1,118.9,24.4s70.3,38,97.6,65.3s49,59.8,65.3,97.6S990,458.5,990,500s-8.1,81.1-24.4,118.9s-38,70.3-65.3,97.6
			s-59.8,49-97.6,65.3s-77.4,24.4-118.9,24.4H316.3c-41.5,0-81.1-8.1-118.9-24.4c-37.8-16.3-70.3-38-97.6-65.3s-49-59.8-65.3-97.6
			S10,541.5,10,500L10,500z M683.8,745c33.2,0,64.8-6.5,95-19.4c30.1-12.9,56.2-30.4,78.2-52.4s39.5-48.1,52.4-78.2
			c12.9-30.1,19.4-61.8,19.4-95s-6.5-64.8-19.4-95c-12.9-30.1-30.4-56.2-52.4-78.2s-48.1-39.5-78.2-52.4
			c-30.1-12.9-61.8-19.4-95-19.4s-64.8,6.5-95,19.4c-30.1,12.9-56.2,30.4-78.2,52.4s-39.5,48.1-52.4,78.2s-19.4,61.8-19.4,95
			s6.5,64.8,19.4,95c12.9,30.1,30.4,56.2,52.4,78.2s48.1,39.5,78.2,52.4S650.6,745,683.8,745z"/>
	</g>
</g>
</svg>
