<svg id="Layer_1" data-name="Layer 1" xmlns="http://www.w3.org/2000/svg" viewBox="0 0 62.52 62.52"><title>Artboard 1</title><path d="M22.56,7.76a20.78,20.78,0,0,0-20.8,20.8A26.23,26.23,0,0,0,28,54.76,32.82,32.82,0,0,0,60.76,22l-20.6,2.8a14.13,14.13,0,0,1-14.1,13.7,11.39,11.39,0,0,1-11.4-11.4,9.18,9.18,0,0,1,9.2-9.2,7.55,7.55,0,0,1,7.5,7.5,6.06,6.06,0,0,1-6.1,6.1,5,5,0,0,1-5-5,4.12,4.12,0,0,1,4.1-4.1,3.37,3.37,0,0,1,3.4,3.4,2.86,2.86,0,0,1-2.8,2.8,2.26,2.26,0,0,1-2.3-2.3,2,2,0,0,1,2-2,1.75,1.75,0,0,1,1.7,1.7,1.37,1.37,0,0,1-1.4,1.4.5.5,0,0,1,0-1,.43.43,0,0,0,.4-.4.68.68,0,0,0-.7-.7,1,1,0,0,0-1,1,1.32,1.32,0,0,0,1.3,1.3,1.79,1.79,0,0,0,1.8-1.8,2.43,2.43,0,0,0-2.4-2.4,3.12,3.12,0,0,0-3.1,3.1,4,4,0,0,0,4,4,5.12,5.12,0,0,0,5.1-5.1,6.49,6.49,0,0,0-6.5-6.5,8.24,8.24,0,0,0-8.2,8.2,10.46,10.46,0,0,0,10.4,10.4,13.19,13.19,0,0,0,13.2-13.2A16.69,16.69,0,0,0,22.56,7.76Z"/></svg>